<svg id="instagram_1_" data-name="instagram (1)" xmlns="http://www.w3.org/2000/svg" width="20" height="20" viewBox="0 0 20 20">
  <path id="Path_4" data-name="Path 4" d="M14.042,0H5.958A5.965,5.965,0,0,0,0,5.958v8.084A5.965,5.965,0,0,0,5.958,20h8.084A5.965,5.965,0,0,0,20,14.042V5.958A5.965,5.965,0,0,0,14.042,0Zm3.946,14.042a3.946,3.946,0,0,1-3.946,3.946H5.958a3.946,3.946,0,0,1-3.946-3.946V5.958A3.946,3.946,0,0,1,5.958,2.012h8.084a3.946,3.946,0,0,1,3.946,3.946v8.084Z" fill="#8f7054"/>
  <path id="Path_5" data-name="Path 5" d="M137.374,133a4.374,4.374,0,1,0,4.374,4.374A4.379,4.379,0,0,0,137.374,133Zm0,7.047a2.673,2.673,0,1,1,2.673-2.673A2.673,2.673,0,0,1,137.374,140.047Z" transform="translate(-127.374 -127.374)" fill="#8f7054"/>
  <circle id="Ellipse_2" data-name="Ellipse 2" cx="1.444" cy="1.444" r="1.444" transform="translate(13.617 3.542)" fill="#8f7054"/>
</svg>
